<svg width="128" height="128" viewBox="0 0 128 128" fill="none" xmlns="http://www.w3.org/2000/svg">
<path d="M6.54599e-05 63.8201C0.0500655 28.5201 28.8301 -0.0499345 64.2901 6.55282e-05C99.3201 0.0500655 128 28.9101 127.97 64.0701C127.94 99.5101 99.1001 128.05 63.3801 127.99C28.5501 127.92 -0.0499345 98.9701 6.54599e-05 63.8201ZM121.48 67.5001C121.52 56.4301 119.97 48.5901 116.65 41.1601C103.14 10.9701 68.4001 -1.85993 38.5201 12.3501C30.5401 16.1401 23.5101 21.3101 18.5401 28.7501C11.8301 38.7901 13.7001 50.6501 23.0901 57.4301C25.8201 59.4101 29.0201 60.8501 32.1701 62.1101C36.0901 63.6901 40.1901 64.8001 44.1901 66.1701C52.5601 69.0501 58.7701 74.3501 62.3701 82.5301C63.1001 84.1801 63.7701 85.8601 64.4801 87.5201C66.3401 91.8601 67.9201 96.3601 70.1601 100.5C73.4801 106.63 78.5001 110.91 85.6701 111.87C93.6701 112.94 100.25 109.77 105.6 104.14C116.1 93.0901 121.26 79.7901 121.47 67.4901L121.48 67.5001Z" fill="url(#paint0_linear_116_62)"/>
<path d="M64.4003 17.3701C91.1003 17.9501 111.98 40.3001 110.6 66.9801C110.04 77.7301 106.22 87.2301 98.8103 95.1501C96.3603 97.7701 93.5003 99.8401 90.0203 100.96C86.3003 102.16 82.7803 101.75 79.4403 99.7201C75.2503 97.1801 72.3103 93.5501 70.3003 89.1401C69.0603 86.4201 67.9003 83.6701 66.7203 80.9201C62.6603 71.4101 55.5903 65.2301 45.8903 61.8501C42.4303 60.6401 38.8903 59.4901 35.6903 57.7501C33.1203 56.3601 30.7103 54.3901 28.7603 52.2101C24.4203 47.3501 24.0003 42.0501 27.1603 36.3301C31.0703 29.2701 37.3203 24.8301 44.4303 21.4901C50.7403 18.5401 57.4303 17.2901 64.3803 17.3501L64.4003 17.3701ZM63.4703 27.9901C60.7003 28.3901 57.8903 28.5901 55.1803 29.2401C47.6103 31.0501 41.1903 34.8001 36.6903 41.2901C33.7403 45.5401 34.2903 50.0401 38.0603 53.6001C39.3103 54.7801 40.8003 55.7601 42.3103 56.5901C44.2703 57.6701 46.3303 58.5801 48.3903 59.4401C56.0503 62.6401 62.5703 67.2201 66.8203 74.5401C68.4703 77.3901 69.8503 80.4001 71.5303 83.2301C72.7603 85.3001 74.0603 87.4201 75.7303 89.1201C79.4703 92.9601 84.2703 93.1301 88.5303 89.8701C91.8103 87.3601 94.2303 84.1001 96.0803 80.4801C108.23 56.6901 90.2603 27.8901 63.4703 27.9801V27.9901Z" fill="url(#paint1_linear_116_62)"/>
<path d="M63.5999 39.0101C81.8699 39.0101 94.6199 57.7701 86.2099 75.7701C85.3899 77.5201 84.0399 79.1401 82.5999 80.4501C79.2099 83.5201 75.2999 82.9801 72.6699 79.2501C71.7799 77.9801 71.0599 76.5901 70.3499 75.2101C66.3999 67.5801 60.4999 62.0201 52.7099 58.4401C51.2399 57.7701 49.7399 57.1401 48.3699 56.2901C44.4699 53.8801 43.7699 50.1001 46.4999 46.4201C49.0399 43.0001 52.6799 41.2601 56.6499 40.2201C58.9199 39.6301 61.2899 39.4001 63.6099 39.0101H63.5999ZM79.6699 63.7101C79.6999 63.2001 79.6999 62.6901 79.6699 62.1901C79.4999 59.2101 78.0599 56.4201 76.2199 54.1301C71.8999 48.7601 64.6399 46.8901 58.7699 49.6401C54.1199 51.8201 53.7099 55.5001 57.7999 58.4501C58.0999 58.6701 58.4199 58.8701 58.7299 59.0701C62.8999 61.6801 66.4199 64.9601 69.2499 68.9901C69.6799 69.6001 70.1499 70.1901 70.6599 70.7301C72.6699 72.8501 75.4499 73.3201 77.2699 70.7201C78.6899 68.6901 79.5299 66.2101 79.6799 63.7201L79.6699 63.7101Z" fill="url(#paint2_linear_116_62)"/>
<defs>
<linearGradient id="paint0_linear_116_62" x1="6.54599e-05" y1="63.9901" x2="127.97" y2="63.9901" gradientUnits="userSpaceOnUse">
<stop stop-color="#5C58EB"/>
<stop offset="0.51" stop-color="#5ADFE8"/>
<stop offset="1" stop-color="#B964FF"/>
</linearGradient>
<linearGradient id="paint1_linear_116_62" x1="25.1103" y1="59.5001" x2="110.66" y2="59.5001" gradientUnits="userSpaceOnUse">
<stop stop-color="#5C58EB"/>
<stop offset="0.51" stop-color="#5ADFE8"/>
<stop offset="1" stop-color="#B964FF"/>
</linearGradient>
<linearGradient id="paint2_linear_116_62" x1="44.8499" y1="60.7301" x2="88.8599" y2="60.7301" gradientUnits="userSpaceOnUse">
<stop stop-color="#5C58EB"/>
<stop offset="0.51" stop-color="#5ADFE8"/>
<stop offset="1" stop-color="#B964FF"/>
</linearGradient>
</defs>
</svg>
